<mxfile host="65bd71144e">
    <diagram id="gE4e6rfNcS_uaxZ2d0MZ" name="Fluxo de transação">
        <mxGraphModel dx="2156" dy="941" grid="1" gridSize="10" guides="1" tooltips="1" connect="1" arrows="1" fold="1" page="1" pageScale="1" pageWidth="827" pageHeight="1169" math="0" shadow="0">
            <root>
                <mxCell id="0"/>
                <mxCell id="1" parent="0"/>
                <mxCell id="20" value="" style="group" vertex="1" connectable="0" parent="1">
                    <mxGeometry x="-753" y="150" width="680" height="480" as="geometry"/>
                </mxCell>
                <mxCell id="16" value="" style="rounded=0;whiteSpace=wrap;html=1;" vertex="1" parent="20">
                    <mxGeometry width="680" height="480" as="geometry"/>
                </mxCell>
                <mxCell id="17" value="Fluxo de transferencia" style="text;html=1;strokeColor=none;fillColor=none;align=center;verticalAlign=middle;whiteSpace=wrap;rounded=0;" vertex="1" parent="20">
                    <mxGeometry x="200" y="30" width="280" height="30" as="geometry"/>
                </mxCell>
                <mxCell id="19" value="" style="group" vertex="1" connectable="0" parent="20">
                    <mxGeometry x="75" y="100" width="530" height="350" as="geometry"/>
                </mxCell>
                <mxCell id="2" value="Cliente" style="rounded=0;whiteSpace=wrap;html=1;" vertex="1" parent="19">
                    <mxGeometry x="70" width="120" height="60" as="geometry"/>
                </mxCell>
                <mxCell id="3" value="Lojista" style="rounded=0;whiteSpace=wrap;html=1;" vertex="1" parent="19">
                    <mxGeometry x="410" width="120" height="60" as="geometry"/>
                </mxCell>
                <mxCell id="8" style="edgeStyle=none;html=1;entryX=0;entryY=0.5;entryDx=0;entryDy=0;" edge="1" parent="19" source="2" target="3">
                    <mxGeometry relative="1" as="geometry"/>
                </mxCell>
                <mxCell id="10" style="edgeStyle=none;html=1;entryX=0;entryY=0.833;entryDx=0;entryDy=0;exitX=1;exitY=0.5;exitDx=0;exitDy=0;entryPerimeter=0;" edge="1" parent="19" source="4" target="3">
                    <mxGeometry relative="1" as="geometry"/>
                </mxCell>
                <mxCell id="4" value="Cliente" style="rounded=0;whiteSpace=wrap;html=1;" vertex="1" parent="19">
                    <mxGeometry x="70" y="145" width="120" height="60" as="geometry"/>
                </mxCell>
                <mxCell id="5" value="Lojista" style="rounded=0;whiteSpace=wrap;html=1;" vertex="1" parent="19">
                    <mxGeometry x="410" y="145" width="120" height="60" as="geometry"/>
                </mxCell>
                <mxCell id="13" style="edgeStyle=none;html=1;exitX=0;exitY=0.5;exitDx=0;exitDy=0;entryX=0;entryY=0.5;entryDx=0;entryDy=0;" edge="1" parent="19" source="6" target="2">
                    <mxGeometry relative="1" as="geometry">
                        <Array as="points">
                            <mxPoint y="320"/>
                            <mxPoint y="30"/>
                        </Array>
                    </mxGeometry>
                </mxCell>
                <mxCell id="6" value="Cliente" style="rounded=0;whiteSpace=wrap;html=1;" vertex="1" parent="19">
                    <mxGeometry x="70" y="290" width="120" height="60" as="geometry"/>
                </mxCell>
                <mxCell id="9" style="edgeStyle=none;html=1;entryX=0;entryY=0.25;entryDx=0;entryDy=0;exitX=1;exitY=0.5;exitDx=0;exitDy=0;" edge="1" parent="19" source="2" target="5">
                    <mxGeometry relative="1" as="geometry">
                        <mxPoint x="200" y="40" as="sourcePoint"/>
                        <mxPoint x="420" y="40" as="targetPoint"/>
                    </mxGeometry>
                </mxCell>
                <mxCell id="7" style="edgeStyle=none;html=1;" edge="1" parent="19" source="2" target="6">
                    <mxGeometry relative="1" as="geometry">
                        <mxPoint x="130" y="140" as="targetPoint"/>
                        <Array as="points">
                            <mxPoint x="130" y="120"/>
                            <mxPoint x="30" y="120"/>
                            <mxPoint x="30" y="240"/>
                            <mxPoint x="130" y="240"/>
                        </Array>
                    </mxGeometry>
                </mxCell>
                <mxCell id="11" style="edgeStyle=none;html=1;exitX=1;exitY=0.5;exitDx=0;exitDy=0;entryX=0;entryY=0.5;entryDx=0;entryDy=0;" edge="1" parent="19" source="4" target="5">
                    <mxGeometry relative="1" as="geometry">
                        <mxPoint x="200" y="155" as="sourcePoint"/>
                        <mxPoint x="400" y="180" as="targetPoint"/>
                    </mxGeometry>
                </mxCell>
                <mxCell id="43" value="" style="group" vertex="1" connectable="0" parent="20">
                    <mxGeometry x="543" y="400" width="120" height="60" as="geometry"/>
                </mxCell>
                <mxCell id="41" value="" style="rounded=0;whiteSpace=wrap;html=1;" vertex="1" parent="43">
                    <mxGeometry width="120" height="60" as="geometry"/>
                </mxCell>
                <mxCell id="40" value="" style="endArrow=classic;html=1;" edge="1" parent="43">
                    <mxGeometry width="50" height="50" relative="1" as="geometry">
                        <mxPoint x="30" y="45" as="sourcePoint"/>
                        <mxPoint x="100" y="45" as="targetPoint"/>
                    </mxGeometry>
                </mxCell>
                <mxCell id="42" value="Transação" style="text;html=1;strokeColor=none;fillColor=none;align=center;verticalAlign=middle;whiteSpace=wrap;rounded=0;" vertex="1" parent="43">
                    <mxGeometry x="30" width="60" height="30" as="geometry"/>
                </mxCell>
            </root>
        </mxGraphModel>
    </diagram>
    <diagram id="UM0v-lTHW9CHEnLqewXC" name="Caso de uso">
        <mxGraphModel dx="1130" dy="800" grid="1" gridSize="10" guides="1" tooltips="1" connect="1" arrows="1" fold="1" page="1" pageScale="1" pageWidth="827" pageHeight="1169" math="0" shadow="0">
            <root>
                <mxCell id="0"/>
                <mxCell id="1" parent="0"/>
                <mxCell id="HDBPOV18R0nT2LrPAcoY-5" style="edgeStyle=none;html=1;" edge="1" parent="1" source="HDBPOV18R0nT2LrPAcoY-1" target="HDBPOV18R0nT2LrPAcoY-4">
                    <mxGeometry relative="1" as="geometry"/>
                </mxCell>
                <mxCell id="HDBPOV18R0nT2LrPAcoY-20" style="edgeStyle=none;html=1;entryX=0;entryY=0.5;entryDx=0;entryDy=0;" edge="1" parent="1" source="HDBPOV18R0nT2LrPAcoY-1" target="HDBPOV18R0nT2LrPAcoY-19">
                    <mxGeometry relative="1" as="geometry"/>
                </mxCell>
                <mxCell id="HDBPOV18R0nT2LrPAcoY-1" value="Cliente" style="shape=umlActor;verticalLabelPosition=bottom;verticalAlign=top;html=1;outlineConnect=0;" vertex="1" parent="1">
                    <mxGeometry x="60" y="210" width="102.5" height="205" as="geometry"/>
                </mxCell>
                <mxCell id="HDBPOV18R0nT2LrPAcoY-4" value="Efetuar&lt;br&gt;Transação" style="ellipse;whiteSpace=wrap;html=1;aspect=fixed;" vertex="1" parent="1">
                    <mxGeometry x="300" y="150" width="90" height="90" as="geometry"/>
                </mxCell>
                <mxCell id="HDBPOV18R0nT2LrPAcoY-7" value="Lojista" style="shape=umlActor;verticalLabelPosition=bottom;verticalAlign=top;html=1;outlineConnect=0;" vertex="1" parent="1">
                    <mxGeometry x="550" y="210" width="102.5" height="205" as="geometry"/>
                </mxCell>
                <mxCell id="HDBPOV18R0nT2LrPAcoY-19" value="Efetuar&lt;br&gt;Transação" style="ellipse;whiteSpace=wrap;html=1;aspect=fixed;" vertex="1" parent="1">
                    <mxGeometry x="300" y="300" width="90" height="90" as="geometry"/>
                </mxCell>
            </root>
        </mxGraphModel>
    </diagram>
</mxfile>